# xmcd
#
# Track frame offsets: 
#        150
#        22535
#        34460
#        50960
#        77655
#        95693
#        115817
#        131668
#        153890
#        174599
#        193425
#        208454
#
# Disc length: 2989 seconds
#
# Revision: 0
# Processed by: cddbd v1.5.2PL0 Copyright (c) Steve Scherf et al.
# Submitted via: ExactAudioCopy v0.99pb5
#
DISCID=ab0bab0c
DTITLE=Strange Jerome - Guns - Ammo - Jewelry - Coins
DYEAR=2009
DGENRE=Country
TTITLE0=Elvis, Please Advise
TTITLE1=Chicken On A Wire
TTITLE2=Bourbon Street
TTITLE3=Sedro Woolley
TTITLE4=Cheap Shots
TTITLE5=Big Shot O'Whiskey
TTITLE6=The Flame
TTITLE7=What If I Was Dreamin'
TTITLE8=Sunday Mornin'
TTITLE9=Saw You Last
TTITLE10=Five
TTITLE11=Actually
EXTD=
EXTT0=
EXTT1=
EXTT2=
EXTT3=
EXTT4=
EXTT5=
EXTT6=
EXTT7=
EXTT8=
EXTT9=
EXTT10=
EXTT11=
PLAYORDER=
